<svg width="36" height="39" viewBox="0 0 36 39" fill="none" xmlns="http://www.w3.org/2000/svg">
<path d="M16.5 27.625H19.5V21.125H25.5V17.875H19.5V11.375H16.5V17.875H10.5V21.125H16.5V27.625ZM18 35.75C15.925 35.75 13.975 35.3302 12.15 34.4906C10.325 33.624 8.7375 32.4594 7.3875 30.9969C6.0375 29.5344 4.9625 27.8146 4.1625 25.8375C3.3875 23.8604 3 21.7479 3 19.5C3 17.2521 3.3875 15.1396 4.1625 13.1625C4.9625 11.1854 6.0375 9.46562 7.3875 8.00312C8.7375 6.54062 10.325 5.38958 12.15 4.55C13.975 3.68333 15.925 3.25 18 3.25C20.075 3.25 22.025 3.68333 23.85 4.55C25.675 5.38958 27.2625 6.54062 28.6125 8.00312C29.9625 9.46562 31.025 11.1854 31.8 13.1625C32.6 15.1396 33 17.2521 33 19.5C33 21.7479 32.6 23.8604 31.8 25.8375C31.025 27.8146 29.9625 29.5344 28.6125 30.9969C27.2625 32.4594 25.675 33.624 23.85 34.4906C22.025 35.3302 20.075 35.75 18 35.75ZM18 32.5C21.35 32.5 24.1875 31.2406 26.5125 28.7219C28.8375 26.2031 30 23.1292 30 19.5C30 15.8708 28.8375 12.7969 26.5125 10.2781C24.1875 7.75937 21.35 6.5 18 6.5C14.65 6.5 11.8125 7.75937 9.4875 10.2781C7.1625 12.7969 6 15.8708 6 19.5C6 23.1292 7.1625 26.2031 9.4875 28.7219C11.8125 31.2406 14.65 32.5 18 32.5Z" fill="#C9C600"/>
</svg>
