<svg width="24" height="24" viewBox="0 0 24 24" fill="none" xmlns="http://www.w3.org/2000/svg">
<path d="M6.3291 19.9727L9.3291 19.4727C9.74014 19.4041 10.1194 19.2087 10.4141 18.9141L19.0605 10.2676C20.0368 9.29128 20.0368 7.70872 19.0605 6.73242L17.2676 4.93945C16.3523 4.02418 14.9038 3.96665 13.9219 4.76758L13.7324 4.93945L5.08594 13.5859C4.79127 13.8806 4.59592 14.2599 4.52734 14.6709L4.02734 17.6709C3.92117 18.308 4.12922 18.9573 4.58594 19.4141C5.04265 19.8708 5.692 20.0788 6.3291 19.9727ZM13.957 7.54297L15.1465 6.35352C15.3417 6.1583 15.6583 6.1583 15.8535 6.35352L17.6465 8.14648L17.7109 8.22461C17.8391 8.41867 17.8173 8.68266 17.6465 8.85352L16.457 10.043L13.957 7.54297ZM6.5 15L12.543 8.95703L15.043 11.457L9 17.5L6 18L6.5 15Z" fill="black" fill-opacity="0.9"/>
</svg>
