<svg width="16" height="16" viewBox="0 0 16 16" fill="none" xmlns="http://www.w3.org/2000/svg">
<path d="M7.99998 3.26308C5.81528 3.26308 4.05263 5.01638 4.05263 7.16888C4.05263 7.64414 4.26165 8.23456 4.64138 8.88987C5.01513 9.53484 5.52369 10.1909 6.05148 10.784C6.57791 11.3756 7.11293 11.8928 7.53044 12.2597C7.71826 12.4247 7.87827 12.5559 7.99998 12.6481C8.12168 12.5559 8.2817 12.4247 8.46952 12.2597C8.88703 11.8928 9.42205 11.3756 9.94848 10.784C10.4763 10.1909 10.9848 9.53484 11.3586 8.88987C11.7383 8.23456 11.9473 7.64414 11.9473 7.16888C11.9473 5.01638 10.1847 3.26308 7.99998 3.26308ZM3 7.16888C3 4.42579 5.24321 2.21045 7.99998 2.21045C10.7568 2.21045 13 4.42579 13 7.16888C13 7.91751 12.6847 8.7008 12.2693 9.41763C11.848 10.1448 11.2905 10.8593 10.7348 11.4838C10.1778 12.1097 9.6119 12.6571 9.16438 13.0504C8.94115 13.2466 8.74239 13.4088 8.58521 13.5249C8.50766 13.5822 8.4323 13.6342 8.36461 13.6743C8.33133 13.694 8.29053 13.7165 8.24622 13.7356L8.24578 13.7358C8.21768 13.748 8.12193 13.7893 7.99998 13.7893C7.87803 13.7893 7.78227 13.748 7.75417 13.7358L7.75374 13.7356C7.70943 13.7165 7.66863 13.694 7.63535 13.6743C7.56766 13.6342 7.4923 13.5822 7.41475 13.5249C7.25757 13.4088 7.05881 13.2466 6.83558 13.0504C6.38806 12.6571 5.82214 12.1097 5.26511 11.4838C4.70944 10.8593 4.152 10.1448 3.73062 9.41763C3.31524 8.7008 3 7.91751 3 7.16888ZM7.99998 5.75614C7.35949 5.75614 6.84867 6.26924 6.84867 6.89187C6.84867 7.5145 7.35949 8.0276 7.99998 8.0276C8.64047 8.0276 9.15129 7.5145 9.15129 6.89187C9.15129 6.26924 8.64047 5.75614 7.99998 5.75614ZM5.79604 6.89187C5.79604 5.67866 6.78742 4.70351 7.99998 4.70351C9.21254 4.70351 10.2039 5.67866 10.2039 6.89187C10.2039 8.10509 9.21254 9.08023 7.99998 9.08023C6.78742 9.08023 5.79604 8.10509 5.79604 6.89187Z" fill="black" fill-opacity="0.5"/>
</svg>
