<svg width="16" height="16" viewBox="0 0 16 16" fill="none" xmlns="http://www.w3.org/2000/svg">
<path d="M7.99951 2C8.43398 2 8.81879 2.28072 8.95166 2.69434L9.85205 5.5H12.7554C13.1902 5.50008 13.575 5.78122 13.7075 6.19531C13.8399 6.60977 13.689 7.06228 13.3345 7.31445L11.0063 8.96973L11.9448 11.6719C12.0869 12.0811 11.9492 12.5353 11.604 12.7969C11.2586 13.0583 10.7837 13.0679 10.4282 12.8203L7.99951 11.1279L5.57178 12.8203C5.21632 13.0679 4.74133 13.0584 4.396 12.7969C4.05099 12.5353 3.91322 12.081 4.05518 11.6719L4.99268 8.96973L2.66553 7.31445C2.3111 7.06228 2.16019 6.6097 2.29248 6.19531C2.42498 5.78124 2.80984 5.50011 3.24463 5.5H6.14795L7.04736 2.69434L7.10889 2.5459C7.27732 2.21511 7.61948 2.00025 7.99951 2ZM6.87744 6.5H3.24463L6.18311 8.58984L5.00049 12L7.99951 9.91016L11.0005 12L9.81592 8.58984L12.7554 6.5H9.12256L7.99951 3L6.87744 6.5Z" fill="black" fill-opacity="0.5"/>
</svg>
