<svg width="20" height="19" viewBox="0 0 20 19" fill="none" xmlns="http://www.w3.org/2000/svg">
<g clip-path="url(#clip0_99_2371)">
<path d="M14.1666 16.625V15.0417C14.1666 14.2018 13.8154 13.3964 13.1903 12.8025C12.5652 12.2086 11.7173 11.875 10.8333 11.875H4.16658C3.28253 11.875 2.43468 12.2086 1.80956 12.8025C1.18444 13.3964 0.833252 14.2018 0.833252 15.0417V16.625M19.1666 16.625V15.0417C19.166 14.34 18.9202 13.6584 18.4677 13.1039C18.0152 12.5494 17.3817 12.1533 16.6666 11.9779M13.3333 2.47792C14.0503 2.65232 14.6858 3.04847 15.1396 3.60391C15.5935 4.15935 15.8398 4.84249 15.8398 5.54563C15.8398 6.24876 15.5935 6.9319 15.1396 7.48734C14.6858 8.04278 14.0503 8.43893 13.3333 8.61333M10.8333 5.54167C10.8333 7.29057 9.34087 8.70833 7.49992 8.70833C5.65897 8.70833 4.16658 7.29057 4.16658 5.54167C4.16658 3.79276 5.65897 2.375 7.49992 2.375C9.34087 2.375 10.8333 3.79276 10.8333 5.54167Z" stroke="#1E1E1E" stroke-width="4" stroke-linecap="round" stroke-linejoin="round"/>
</g>
<defs>
<clipPath id="clip0_99_2371">
<rect width="20" height="19" fill="white"/>
</clipPath>
</defs>
</svg>
